<svg width="18" height="18" viewBox="0 0 18 18" fill="none" xmlns="http://www.w3.org/2000/svg">
<path d="M12.048 6.23633C12.048 6.15898 11.9847 6.0957 11.9074 6.0957L10.7472 6.10098L8.99995 8.18399L7.25444 6.10273L6.09253 6.09746C6.01519 6.09746 5.9519 6.15898 5.9519 6.23809C5.9519 6.27148 5.96421 6.30313 5.9853 6.32949L8.27221 9.0541L5.9853 11.777C5.96406 11.8027 5.95228 11.835 5.9519 11.8684C5.9519 11.9457 6.01519 12.009 6.09253 12.009L7.25444 12.0037L8.99995 9.9207L10.7455 12.002L11.9056 12.0072C11.983 12.0072 12.0462 11.9457 12.0462 11.8666C12.0462 11.8332 12.0339 11.8016 12.0128 11.7752L9.72944 9.05234L12.0163 6.32773C12.0374 6.30313 12.048 6.26973 12.048 6.23633Z" fill="#CC6666"/>
<path d="M9 1.14258C4.65117 1.14258 1.125 4.66875 1.125 9.01758C1.125 13.3664 4.65117 16.8926 9 16.8926C13.3488 16.8926 16.875 13.3664 16.875 9.01758C16.875 4.66875 13.3488 1.14258 9 1.14258ZM9 15.5566C5.38945 15.5566 2.46094 12.6281 2.46094 9.01758C2.46094 5.40703 5.38945 2.47852 9 2.47852C12.6105 2.47852 15.5391 5.40703 15.5391 9.01758C15.5391 12.6281 12.6105 15.5566 9 15.5566Z" fill="#CC6666"/>
</svg>
